<?xml version="1.0" encoding="UTF-8"?>
<svg id="Vrstva_1" data-name="Vrstva 1" xmlns="http://www.w3.org/2000/svg" viewBox="0 0 2000 2000">
  <defs>
    <style>
      .cls-1 {
        fill: #f4f5f4;
      }
    </style>
  </defs>
  <path class="cls-1" d="M1743.8,992.47c0,123.01-47.85,235.2-125.93,319.13l-98.36-117.6c47.16-56.95,72.67-127.48,72.67-201.53,0-84.44-33.24-164.33-93.63-224.63-23.11-23.11-49.05-42.26-76.97-57.04-45.1-23.88-95.44-36.59-147.67-36.59h-381.23v-151.62h381.23c93.03,0,180.05,27.4,253.24,74.56,130.06,83.75,216.65,229.96,216.65,395.32Z"/>
  <path class="cls-1" d="M1309.74,1460.93c-12.28.98-24.65,1.42-37.11,1.42h-527.95c-62.56,0-122.44-11.92-177.44-33.73-180.64-71.28-309.31-247.83-309.31-453.03,0-133.83,54.73-255.57,143-343.75,46.98-47.07,103.49-84.54,166.31-109.27v175.66c-19.75,12.64-38.26,27.68-55.26,44.67-62.56,62.47-96.99,145.22-96.99,232.7s34.44,170.14,96.99,232.7c17,17,35.51,31.95,55.26,44.67,52.59,33.99,113.72,52.23,177.44,52.23h437.72l127.34,155.73Z"/>
</svg>