<?xml version="1.0" encoding="UTF-8"?>
<svg id="Vrstva_1" data-name="Vrstva 1" xmlns="http://www.w3.org/2000/svg" viewBox="0 0 1000 1000">
  <defs>
    <style>
      .cls-1 {
        fill: #9fb6c3;
      }
    </style>
  </defs>
  <path class="cls-1" d="M500,138.5c-189.96,0-343.98,154.02-343.98,343.98s154.02,343.98,343.98,343.98,343.98-153.99,343.98-343.98-153.99-343.98-343.98-343.98ZM500,769.13c-158.33,0-286.65-128.32-286.65-286.65S341.67,195.84,500,195.84s286.65,128.31,286.65,286.65-128.32,286.65-286.65,286.65Z"/>
  <path class="cls-1" d="M397.21,511.15l-40.54,40.54,123.07,123.06c11.19,11.2,29.36,11.2,40.53,0l123.07-123.06-40.54-40.54-74.12,74.13v-303.44h-57.33v303.45l-74.13-74.14Z"/>
</svg>