<?xml version="1.0" encoding="UTF-8"?>
<svg id="Layer_1" data-name="Layer 1" xmlns="http://www.w3.org/2000/svg" xmlns:xlink="http://www.w3.org/1999/xlink" viewBox="0 0 1855.83 1073.28">
  <defs>
    <style>
      .cls-1 {
        fill: #111d22;
      }
    </style>
  </defs>
  <g>
    <path class="cls-1" d="M141.37,648.33v-195.12h32.66v90.51l77.91-90.51h40.11l-83.88,95.66,89.57,99.46h-41.46l-82.25-91.06v91.06h-32.66Z"/>
    <path class="cls-1" d="M307.76,648.33l61.52-195.12h47.83l61.52,195.12h-33.61l-55.83-175.07h7.32l-55.15,175.07h-33.6ZM342.05,606.06v-30.49h102.44v30.49h-102.44Z"/>
    <path class="cls-1" d="M507.63,648.33v-195.12h80.63c1.9,0,4.34.07,7.32.2,2.98.14,5.73.43,8.26.88,11.29,1.72,20.62,5.47,27.98,11.25,7.36,5.78,12.83,13.08,16.4,21.88,3.57,8.81,5.35,18.59,5.35,29.34s-1.81,20.39-5.42,29.2c-3.61,8.81-9.1,16.1-16.46,21.88-7.36,5.78-16.65,9.53-27.85,11.25-2.53.36-5.31.63-8.33.81-3.03.18-5.44.27-7.25.27h-47.97v68.16h-32.66ZM540.28,549.69h46.61c1.81,0,3.84-.09,6.1-.27,2.26-.18,4.34-.54,6.23-1.08,5.42-1.36,9.69-3.75,12.81-7.18,3.12-3.43,5.33-7.32,6.64-11.65,1.31-4.34,1.97-8.58,1.97-12.74s-.66-8.42-1.97-12.81c-1.31-4.38-3.52-8.29-6.64-11.72-3.12-3.43-7.39-5.83-12.81-7.18-1.9-.54-3.98-.88-6.23-1.02-2.26-.14-4.29-.2-6.1-.2h-46.61v65.85Z"/>
    <path class="cls-1" d="M757.49,652.4c-14.27,0-27.12-2.48-38.55-7.45-11.43-4.97-20.82-12.08-28.18-21.34-7.36-9.26-12.04-20.26-14.02-33l33.88-5.15c2.89,11.56,8.83,20.51,17.82,26.83,8.99,6.32,19.35,9.48,31.1,9.48,6.95,0,13.5-1.08,19.65-3.25,6.14-2.17,11.13-5.33,14.97-9.48,3.84-4.16,5.76-9.26,5.76-15.31,0-2.71-.45-5.22-1.35-7.52-.9-2.3-2.24-4.36-4-6.17-1.76-1.81-4.02-3.46-6.77-4.94-2.76-1.49-5.94-2.78-9.55-3.86l-50.41-14.9c-4.34-1.27-9.01-2.96-14.02-5.08-5.01-2.12-9.76-5.06-14.23-8.81-4.47-3.75-8.13-8.54-10.98-14.36-2.85-5.83-4.27-13.03-4.27-21.61,0-12.56,3.19-23.1,9.55-31.64,6.37-8.54,14.95-14.93,25.74-19.17,10.79-4.25,22.79-6.32,35.98-6.23,13.37.09,25.29,2.37,35.77,6.84,10.48,4.47,19.24,10.96,26.29,19.45,7.05,8.49,12.01,18.75,14.9,30.76l-35.1,6.1c-1.45-6.87-4.22-12.71-8.33-17.55-4.11-4.83-9.13-8.51-15.04-11.04-5.92-2.53-12.22-3.88-18.9-4.06-6.5-.09-12.53.88-18.09,2.91-5.56,2.03-10.03,4.94-13.41,8.74s-5.08,8.22-5.08,13.28c0,4.79,1.44,8.69,4.34,11.72,2.89,3.03,6.48,5.42,10.77,7.18,4.29,1.76,8.65,3.23,13.08,4.4l34.96,9.76c4.79,1.27,10.16,2.98,16.13,5.15,5.96,2.17,11.7,5.2,17.21,9.08,5.51,3.89,10.05,8.99,13.62,15.31,3.57,6.32,5.35,14.36,5.35,24.12s-2.1,18.99-6.3,26.63c-4.2,7.64-9.87,13.98-17.01,19.04-7.14,5.06-15.29,8.85-24.46,11.38-9.17,2.53-18.77,3.79-28.79,3.79Z"/>
    <path class="cls-1" d="M870.77,648.33v-195.12h32.66v164.5h86.18v30.62h-118.84Z"/>
    <path class="cls-1" d="M1457.84,652.4c-19.51,0-36.23-4.27-50.13-12.8-13.91-8.54-24.59-20.44-32.05-35.71-7.45-15.26-11.18-32.97-11.18-53.12s3.73-37.85,11.18-53.12c7.45-15.26,18.13-27.17,32.05-35.7,13.91-8.54,30.62-12.81,50.13-12.81,22.49,0,41.24,5.62,56.23,16.87,14.99,11.25,25.52,26.4,31.57,45.46l-32.93,9.08c-3.79-12.74-10.25-22.7-19.38-29.88-9.13-7.18-20.96-10.77-35.5-10.77-13.1,0-24.01,2.94-32.72,8.81-8.72,5.87-15.27,14.12-19.65,24.73-4.38,10.61-6.62,23.06-6.71,37.33,0,14.28,2.19,26.72,6.57,37.33,4.38,10.61,10.95,18.86,19.72,24.73,8.76,5.87,19.69,8.81,32.79,8.81,14.54,0,26.38-3.61,35.5-10.84,9.12-7.23,15.58-17.16,19.38-29.81l32.93,9.08c-6.05,19.06-16.58,34.21-31.57,45.46-15,11.25-33.74,16.87-56.23,16.87Z"/>
    <path class="cls-1" d="M1574.7,648.33v-195.12h32.65v90.51l77.92-90.51h40.11l-83.87,95.66,89.57,99.46h-41.46l-82.25-91.06v91.06h-32.65Z"/>
  </g>
  <image width="8334" height="8334" transform="translate(963.95 348.39) scale(.05)" xlink:href="../Downloads/Kapson_logo_4.png"/>
</svg>