<?xml version="1.0" encoding="UTF-8"?>
<svg id="Vrstva_1" data-name="Vrstva 1" xmlns="http://www.w3.org/2000/svg" viewBox="0 0 1000 1000">
  <defs>
    <style>
      .cls-1 {
        fill: #1d2226;
      }
    </style>
  </defs>
  <path class="cls-1" d="M643.33,316.45v57.33c31.66,0,57.3,25.7,57.3,57.33h.03v114.66c0,31.67-25.69,57.31-57.32,57.31v.04h-131.46l45.43-45.47-40.53-40.53-94.37,94.39c-11.19,11.17-11.19,29.34,0,40.53l94.39,94.39,40.54-40.54-45.47-45.46h131.46c63.28,0,114.66-51.35,114.66-114.67v-114.66c0-63.3-51.35-114.66-114.66-114.66Z"/>
  <path class="cls-1" d="M577.6,324.85l-94.39-94.39-40.54,40.53,45.47,45.47h-131.46c-63.28,0-114.66,51.34-114.66,114.66v114.66c0,63.31,51.35,114.67,114.66,114.67v-57.33c-31.67,0-57.3-25.7-57.3-57.34h-.03v-114.66c0-31.67,25.69-57.31,57.32-57.31v-.03h131.46l-45.43,45.47,40.53,40.53,94.37-94.4c11.19-11.17,11.19-29.33,0-40.53Z"/>
</svg>