<?xml version="1.0" encoding="UTF-8"?>
<svg id="Vrstva_1" data-name="Vrstva 1" xmlns="http://www.w3.org/2000/svg" viewBox="0 0 2000 2000">
  <defs>
    <style>
      .cls-1 {
        fill: #f4f5f4;
      }
    </style>
  </defs>
  <path class="cls-1" d="M1365.76,1172.37c2.8,12.5,4.25,25.51,4.25,38.88,0,87.32-62.23,159.54-142.92,170.91-.16,0-.32.03-.45.03-36.2,3.25-69.93,6.51-63.84-51.92,6.22-55.24,14.11-122.49-51.54-147.42-22.16-8.02-46.87-9.98-70.57-12.14-28.73-2.29-59.75-4.09-87.16-1.22-57.2,5.25-85.58,37.14-95.66,92.35-6.99,28.31-5.35,70.8-29.21,89.58-15.27,12.85-42.32,9.41-58.33,14.56-22.71,9.95,18.04,32.92,28.8,38.1,25.48,11.98,51.95,21.45,79.08,28.76,79.33,21.42,164.21,24.35,245.89,17.94.26-.03.58-.03.84-.06,22.51-1.51,46.16-7.12,68.51-4.03,29.7,5.15,25.51,29.05,4.41,42.52-20.58,12.72-50.41,18.23-80.91,20.45-28.76,2.09-58.14,1.32-81.01,1.1-9.6-.23-20.26-.71-29.57.23-4.32.45-7.44,1.29-8.66,2.51-3.8,5.35,16.97,11.53,21.58,13.14,24.96,7.73,50.25,11.21,76.14,12.92,5.25.35,10.53.64,15.85.87,42.07,1.13,89.29,4.8,64.03,60.23-35.56,73.57-93.02,133.35-156.89,184.3-9.12,8.28-39.75,26.93-29.63,39.97,3.77,4.03,11.18,5.89,17.36,6.51,8.41.97,17.23.87,25.7.55,40.39-.84,78.46-12.34,106.03-42.29,8.44-8.6,16.2-18.13,23.87-28.28,72.92-100.3,138.53-198.74,143.88-312.95.03-.97.03-1.9.03-2.9,23.8-3.83,66-15.52,87.71-51.76,6.41-10.66,13.14-26.99,13.24-63.29.13-31.34-4.67-88.58-40.84-158.12ZM1116.07,1259.95l-9.82,141.5c-17.43,1-34.5,1.51-50.96,1.51-52.28,0-101.01-5.06-145.17-15.07l9.86-141.56c1.93-27.76,25.25-49.51,53.08-49.51,1.22,0,2.45.03,3.67.13l89.96,6.25c14.08,1,26.99,7.44,36.37,18.23,9.37,10.76,14.01,24.45,13.01,38.52Z"/>
  <path class="cls-1" d="M1168.02,370.67h-1.64c-19.1,0-38.97-1.19-54.95-10.05-15.46-8.44-25.8-26.61-35.82-45.93-12.21-24.38-24.22-44.61-37.14-62.2,5.64-29.73,21.16-55.85,53.18-37.72,26.35,16.88,43.68,47.35,56.17,75.66,11.31,26.22,16.91,52.73,20.2,80.23Z"/>
  <path class="cls-1" d="M1407.66,488.59c-.26-2.13,1.13-4.19,3.22-4.67,13.4-3.09,25.41-2.71,35.85,1.71-.35-.74-.74-1.48-1.16-2.19l-.16-.26c-9.18-15.78-28.15-25.77-46.09-32.63-17.2-6.7-35.69-11.95-53.08-18.36-40.78-14.46-77.17-35.53-120.4-40.81-40.39-5.7-86.84,6.57-123.69-13.79-20.74-11.37-33.05-33.47-43.81-54.24-16.04-32.05-34.01-61.68-59.52-87.97-24.87-25.25-55.76-50.76-90.77-58.11-55.69-8.57-47.57,55.53-32.34,94.73,7.54,20.2,17.55,39.42,29.05,57.66,27.7,46.64,72.73,81.33,96.73,129.13,23.42,45.87,20.55,98.66,17.59,149.52-29.28,437.7-348.03,466.4-573.5,762.25-24.16,32.37-38.88,69.25-29.5,108.35,23.03,82.84,114.31,182.34,181.02,235.1,31.08,23.8,83.52,67.48,106.61,18.55,9.24-21.45,9.99-48.99,9.63-77.14-.71-31.47-5.06-62.87-13.69-93.12-7.18-25.09-17.23-49.41-30.73-71.8-18.33-31.28-42.55-54.34-51.44-86.9-8.21-30.79,6.35-56.91,26.96-81.07,95.99-108.19,228.75-179.51,321.23-290.37,15.78-18.75,30.41-38.49,43.61-59.14,37.72-58.72,64-125.14,80.62-192.65,7.18-28.73,12.08-58.75,16.46-88.54,6.02-36.14,13.14-90.74,57.69-91.09,22.8-.29,46.48,6.47,69.7,7.96,34.3,2.71,71.02-2.16,106.07-10.6,42.77-10.85,77.34-25.93,99.59-58.62,4.28-6.41,7.73-13.66,9.73-21.16-19.49,2.35-38.97-8.34-41.49-29.73ZM1191.47,468.78c25.77-12.24,48.64-9.57,67.61,12.24-20.49,23.55-61.04,20.23-67.61-12.24Z"/>
  <path class="cls-1" d="M1265.09,1226.95c-1.81-.52-2.83-2-3.83-3.64-7.71-13.41-35.63-60.08-43.52-74.34-1.67-3.01.41-8.71,1.81-12.7,4.15-11.98,8.48-24.07,12.57-36.09,8.6-25.18,16.27-50.82,20.32-77.28,18.5-118.03-9.29-235.1-66.51-338.79-3.56-6.71-1.69-8.68,4.37-4.89,139.69,112.16,174.49,365.81,98.65,521.94-4.38,8.46-12.73,26.32-23.66,25.83l-.19-.05Z"/>
  <rect class="cls-1" x="1010.84" y="1198.17" width="16.48" height="62.53" rx="1.19" ry="1.19" transform="translate(-275.88 2163.84) rotate(-86.16)"/>
</svg>