<?xml version="1.0" encoding="UTF-8"?>
<svg id="Vrstva_1" data-name="Vrstva 1" xmlns="http://www.w3.org/2000/svg" viewBox="0 0 3688.18 1155.79">
  <defs>
    <style>
      .cls-1 {
        fill: #1e2326;
      }
    </style>
  </defs>
  <g>
    <path class="cls-1" d="M539.16,806.58v-364.06h52.84v169.9l152.45-169.9h65.73l-161.05,177.73,172.93,186.33h-67.76l-162.31-173.94v173.94h-52.84Z"/>
    <path class="cls-1" d="M1121.78,442.51h-76.12l-118.32,364.08h54.87l26.63-82.17h149.45l26.95,82.17h54.86l-118.32-364.08ZM1024.92,674.87l58.21-179.52,58.88,179.52h-117.09Z"/>
    <path class="cls-1" d="M1345.37,806.58v-364.06h147.14c3.54,0,7.92.13,13.15.38,5.22.25,10.19.8,14.92,1.64,20.23,3.2,37.12,10.11,50.69,20.73,13.57,10.62,23.72,24.02,30.47,40.2,6.74,16.18,10.11,34.05,10.11,53.6s-3.37,37.67-10.11,53.85c-6.74,16.18-16.9,29.58-30.47,40.2-13.57,10.62-30.46,17.53-50.69,20.73-4.72.68-9.73,1.18-15.04,1.52-5.31.34-9.65.51-13.02.51h-94.3v130.71h-52.84ZM1398.21,625.81h92.28c3.37,0,7.12-.17,11.25-.51,4.13-.34,8.05-.92,11.76-1.77,10.79-2.53,19.47-7.21,26.04-14.03,6.57-6.83,11.29-14.7,14.16-23.64,2.86-8.93,4.3-17.86,4.3-26.8s-1.43-17.82-4.3-26.67c-2.87-8.85-7.58-16.69-14.16-23.51-6.57-6.83-15.26-11.5-26.04-14.03-3.71-1.01-7.63-1.68-11.76-2.02-4.13-.34-7.88-.51-11.25-.51h-92.28v133.49Z"/>
    <path class="cls-1" d="M1866.04,814.16c-26.13,0-49.68-4.51-70.66-13.53-20.98-9.01-38.26-21.91-51.83-38.68-13.57-16.77-22.37-36.7-26.42-59.79l55.11-8.34c5.56,22.25,17.19,39.57,34.89,51.96,17.7,12.39,38.34,18.58,61.94,18.58,14.66,0,28.15-2.31,40.45-6.95,12.3-4.63,22.2-11.29,29.71-19.97,7.5-8.68,11.25-19.09,11.25-31.22,0-6.57-1.14-12.39-3.41-17.44-2.27-5.06-5.4-9.48-9.35-13.27-3.96-3.79-8.76-7.08-14.41-9.86-5.65-2.78-11.84-5.18-18.58-7.21l-93.29-27.56c-9.1-2.69-18.37-6.19-27.81-10.49-9.44-4.3-18.08-9.94-25.91-16.94-7.84-6.99-14.2-15.67-19.09-26.04-4.89-10.37-7.33-22.96-7.33-37.8,0-22.41,5.77-41.42,17.32-57.01,11.54-15.59,27.18-27.39,46.9-35.4,19.72-8,41.8-12.01,66.24-12.01,24.61.34,46.65,4.72,66.11,13.15,19.47,8.43,35.65,20.52,48.54,36.28,12.89,15.76,21.78,34.85,26.67,57.26l-56.63,9.61c-2.53-13.65-7.92-25.41-16.18-35.27-8.26-9.86-18.37-17.45-30.34-22.75-11.97-5.31-24.95-8.05-38.94-8.22-13.49-.34-25.83,1.69-37.04,6.07-11.21,4.38-20.14,10.54-26.8,18.46-6.66,7.92-9.99,17.03-9.99,27.3s2.95,18.29,8.85,24.52c5.9,6.24,13.19,11.17,21.87,14.79,8.68,3.63,17.32,6.62,25.91,8.98l67.25,18.96c8.43,2.36,17.99,5.52,28.7,9.48,10.7,3.96,21.07,9.48,31.1,16.56,10.03,7.08,18.33,16.48,24.9,28.19,6.57,11.72,9.86,26.42,9.86,44.12s-3.71,34.51-11.12,48.42c-7.42,13.91-17.57,25.53-30.46,34.89-12.89,9.35-27.77,16.39-44.62,21.11-16.86,4.72-34.64,7.08-53.35,7.08Z"/>
    <path class="cls-1" d="M2817.97,806.58v-364.06h53.6l179.25,270.52v-270.52h53.6v364.06h-53.6l-179.25-270.77v270.77h-53.6Z"/>
  </g>
  <g>
    <path class="cls-1" d="M2712.69,625.06c0,49.51-19.26,94.66-50.68,128.44l-39.59-47.33c18.98-22.92,29.25-51.31,29.25-81.11,0-33.99-13.38-66.14-37.68-90.41-9.3-9.3-19.74-17.01-30.98-22.96-18.15-9.61-38.41-14.73-59.43-14.73h-170.65v-61.02h170.65c37.44,0,72.47,11.03,101.92,30.01,52.34,33.71,87.19,92.55,87.19,159.11Z"/>
    <path class="cls-1" d="M2566.47,814.19h-255.88c-25.17,0-49.28-4.81-71.44-13.61-72.67-28.66-124.46-99.72-124.46-182.3,0-53.88,22.03-102.86,57.53-138.37,14.84-14.84,32.02-27.3,50.9-36.78,5.23-2.64,10.55-5.02,16.03-7.19v70.67c-7.95,5.1-15.39,11.14-22.24,17.99-25.17,25.13-39.04,58.47-39.04,93.68s13.86,68.46,39.04,93.64c6.85,6.85,14.29,12.84,22.24,17.99,21.18,13.69,45.8,21.01,71.44,21.01h204.76l51.12,63.27Z"/>
  </g>
</svg>