<?xml version="1.0" encoding="UTF-8"?>
<svg id="Vrstva_1" data-name="Vrstva 1" xmlns="http://www.w3.org/2000/svg" viewBox="0 0 2000 1401.74">
  <defs>
    <style>
      .cls-1 {
        fill: #1e2326;
      }
    </style>
  </defs>
  <g>
    <path class="cls-1" d="M1158.32,635.83c1.34,5.98,2.03,12.21,2.03,18.6,0,41.78-29.78,76.34-68.38,81.78-.08,0-.15.02-.22.02-17.32,1.56-33.46,3.11-30.55-24.84,2.97-26.43,6.75-58.61-24.66-70.54-10.6-3.84-22.42-4.78-33.77-5.81-13.75-1.09-28.59-1.96-41.71-.59-27.37,2.51-40.95,17.77-45.77,44.19-3.34,13.55-2.56,33.88-13.98,42.86-7.31,6.15-20.25,4.5-27.91,6.97-10.87,4.76,8.63,15.75,13.78,18.23,12.19,5.73,24.86,10.26,37.84,13.76,37.96,10.25,78.57,11.65,117.66,8.58.12-.02.28-.02.4-.03,10.77-.72,22.09-3.41,32.78-1.93,14.21,2.47,12.21,13.9,2.11,20.34-9.85,6.09-24.12,8.72-38.72,9.79-13.76,1-27.82.63-38.76.52-4.59-.11-9.69-.34-14.15.11-2.07.22-3.56.62-4.15,1.2-1.82,2.56,8.12,5.52,10.33,6.29,11.94,3.7,24.04,5.36,36.43,6.18,2.51.17,5.04.31,7.58.42,20.13.54,42.72,2.3,30.64,28.82-17.02,35.2-44.51,63.81-75.07,88.19-4.36,3.96-19.02,12.88-14.18,19.13,1.8,1.93,5.35,2.82,8.31,3.11,4.02.46,8.25.42,12.3.26,19.33-.4,37.54-5.9,50.74-20.24,4.04-4.12,7.75-8.68,11.42-13.53,34.89-47.99,66.29-95.09,68.85-149.75.02-.46.02-.91.02-1.39,11.39-1.83,31.58-7.43,41.97-24.77,3.07-5.1,6.29-12.92,6.33-30.29.06-15-2.23-42.38-19.54-75.66ZM1038.84,677.73l-4.7,67.71c-8.34.48-16.51.72-24.38.72-25.01,0-48.33-2.42-69.46-7.21l4.72-67.74c.92-13.29,12.08-23.69,25.4-23.69.59,0,1.17.02,1.76.06l43.05,2.99c6.74.48,12.92,3.56,17.4,8.72,4.48,5.15,6.7,11.7,6.23,18.43Z"/>
    <path class="cls-1" d="M1063.7,252.22h-.79c-9.14,0-18.65-.57-26.29-4.81-7.4-4.04-12.35-12.73-17.14-21.98-5.84-11.67-11.59-21.35-17.77-29.76,2.7-14.23,10.13-26.72,25.45-18.05,12.61,8.08,20.9,22.66,26.88,36.2,5.41,12.55,8.09,25.23,9.66,38.39Z"/>
    <path class="cls-1" d="M1178.37,308.64c-.12-1.02.54-2,1.54-2.23,6.41-1.48,12.16-1.29,17.15.82-.17-.35-.35-.71-.55-1.05l-.08-.12c-4.39-7.55-13.47-12.33-22.05-15.61-8.23-3.21-17.08-5.72-25.4-8.78-19.51-6.92-36.93-17-57.61-19.53-19.33-2.73-41.55,3.14-59.18-6.6-9.93-5.44-15.81-16.01-20.96-25.95-7.68-15.34-16.28-29.51-28.48-42.09-11.9-12.08-26.68-24.29-43.43-27.8-26.65-4.1-22.76,26.57-15.47,45.33,3.61,9.66,8.4,18.86,13.9,27.59,13.25,22.32,34.8,38.92,46.28,61.79,11.2,21.95,9.83,47.21,8.42,71.54-14.01,209.44-166.53,223.17-274.41,364.73-11.56,15.49-18.6,33.14-14.12,51.85,11.02,39.64,54.7,87.25,86.62,112.49,14.87,11.39,39.96,32.29,51.01,8.88,4.42-10.26,4.78-23.44,4.61-36.91-.34-15.06-2.42-30.08-6.55-44.56-3.44-12.01-8.25-23.64-14.7-34.35-8.77-14.97-20.36-26-24.61-41.58-3.93-14.73,3.04-27.23,12.9-38.79,45.93-51.77,109.46-85.89,153.71-138.94,7.55-8.97,14.55-18.42,20.87-28.3,18.05-28.1,30.62-59.88,38.58-92.18,3.44-13.75,5.78-28.11,7.88-42.37,2.88-17.29,6.29-43.42,27.6-43.59,10.91-.14,22.24,3.1,33.35,3.81,16.41,1.29,33.98-1.03,50.75-5.07,20.47-5.19,37-12.41,47.65-28.05,2.05-3.07,3.7-6.53,4.65-10.13-9.32,1.13-18.65-3.99-19.85-14.23ZM1074.92,299.16c12.33-5.86,23.27-4.58,32.35,5.86-9.8,11.27-29.21,9.68-32.35-5.86Z"/>
    <path class="cls-1" d="M1110.15,661.94c-.87-.25-1.36-.96-1.83-1.74-3.69-6.42-17.05-28.75-20.82-35.57-.8-1.44.2-4.17.86-6.07,1.99-5.73,4.06-11.52,6.01-17.27,4.12-12.05,7.79-24.32,9.73-36.98,8.85-56.48-4.45-112.5-31.83-162.11-1.7-3.21-.81-4.15,2.09-2.34,66.84,53.67,83.49,175.04,47.2,249.74-2.1,4.05-6.09,12.6-11.32,12.36l-.09-.02Z"/>
    <rect class="cls-1" x="977.47" y="659.19" width="29.92" height="7.88" rx="1.19" ry="1.19" transform="translate(46.67 -65.01) rotate(3.84)"/>
  </g>
  <g>
    <g>
      <path class="cls-1" d="M186.52,1281.76v-233.22h33.85v108.84l97.66-108.84h42.11l-103.17,113.86,110.78,119.37h-43.41l-103.98-111.43v111.43h-33.85Z"/>
      <path class="cls-1" d="M559.76,1048.54h-48.77l-75.8,233.24h35.15l17.06-52.64h95.74l17.26,52.64h35.15l-75.8-233.24ZM497.71,1197.39l37.29-115,37.72,115h-75.01Z"/>
      <path class="cls-1" d="M702.99,1281.76v-233.22h94.26c2.27,0,5.07.08,8.42.24,3.34.16,6.53.51,9.56,1.05,12.96,2.05,23.78,6.48,32.47,13.28,8.69,6.8,15.2,15.39,19.52,25.75,4.32,10.37,6.48,21.81,6.48,34.34s-2.16,24.13-6.48,34.5c-4.32,10.37-10.83,18.95-19.52,25.75-8.69,6.8-19.52,11.23-32.47,13.28-3.02.43-6.24.76-9.64.97-3.4.22-6.18.32-8.34.32h-60.41v83.73h-33.85ZM736.84,1165.96h59.12c2.16,0,4.56-.11,7.21-.32,2.65-.21,5.16-.59,7.53-1.13,6.91-1.62,12.47-4.62,16.68-8.99,4.21-4.37,7.23-9.42,9.07-15.14,1.83-5.72,2.75-11.44,2.75-17.17s-.92-11.42-2.75-17.09c-1.84-5.67-4.86-10.69-9.07-15.06-4.21-4.37-9.77-7.37-16.68-8.99-2.38-.65-4.89-1.08-7.53-1.3-2.65-.21-5.05-.32-7.21-.32h-59.12v85.52Z"/>
      <path class="cls-1" d="M1036.54,1286.62c-16.74,0-31.82-2.89-45.27-8.67-13.44-5.77-24.51-14.04-33.2-24.78-8.69-10.74-14.33-23.51-16.92-38.3l35.31-5.34c3.56,14.25,11.01,25.35,22.35,33.28,11.34,7.94,24.56,11.9,39.68,11.9,9.39,0,18.03-1.48,25.91-4.45,7.88-2.97,14.22-7.23,19.03-12.8,4.8-5.56,7.21-12.23,7.21-20,0-4.21-.73-7.94-2.19-11.18-1.46-3.24-3.46-6.07-5.99-8.5-2.54-2.43-5.61-4.53-9.23-6.32-3.62-1.78-7.59-3.32-11.9-4.62l-59.76-17.65c-5.83-1.73-11.77-3.97-17.82-6.72-6.05-2.75-11.58-6.37-16.6-10.85-5.02-4.48-9.1-10.04-12.23-16.68-3.13-6.64-4.7-14.71-4.7-24.21,0-14.36,3.7-26.53,11.09-36.52,7.39-9.99,17.41-17.55,30.04-22.67,12.63-5.13,26.78-7.69,42.43-7.69,15.76.22,29.88,3.02,42.35,8.42,12.47,5.4,22.84,13.15,31.1,23.24,8.26,10.1,13.95,22.33,17.09,36.68l-36.28,6.15c-1.62-8.75-5.08-16.28-10.37-22.59-5.29-6.32-11.77-11.18-19.43-14.58-7.67-3.4-15.98-5.15-24.94-5.26-8.64-.22-16.55,1.08-23.73,3.89-7.18,2.81-12.9,6.75-17.17,11.82-4.27,5.08-6.4,10.91-6.4,17.49s1.89,11.72,5.67,15.71c3.78,4,8.45,7.15,14.01,9.47,5.56,2.32,11.09,4.24,16.6,5.75l43.08,12.15c5.4,1.51,11.53,3.54,18.38,6.07,6.86,2.54,13.5,6.07,19.92,10.61,6.42,4.54,11.74,10.56,15.95,18.06,4.21,7.51,6.32,16.93,6.32,28.26s-2.38,22.11-7.13,31.02c-4.75,8.91-11.26,16.36-19.52,22.35-8.26,5.99-17.79,10.5-28.59,13.52-10.8,3.02-22.19,4.54-34.17,4.54Z"/>
      <path class="cls-1" d="M1646.36,1281.76v-233.22h34.34l114.83,173.3v-173.3h34.34v233.22h-34.34l-114.83-173.46v173.46h-34.34Z"/>
    </g>
    <path class="cls-1" d="M1578.92,1165.48c0,31.72-12.34,60.64-32.47,82.28l-25.36-30.32c12.16-14.68,18.74-32.87,18.74-51.96,0-21.77-8.57-42.37-24.14-57.92-5.96-5.96-12.65-10.9-19.84-14.71-11.63-6.16-24.61-9.44-38.07-9.44h-109.32v-39.09h109.32c23.99,0,46.42,7.07,65.29,19.22,33.53,21.59,55.86,59.29,55.86,101.93Z"/>
    <path class="cls-1" d="M1485.24,1286.64h-163.92c-16.13,0-31.57-3.08-45.76-8.72-46.55-18.36-79.73-63.88-79.73-116.78,0-34.51,14.11-65.9,36.86-88.64,9.51-9.51,20.51-17.49,32.61-23.56,3.35-1.69,6.76-3.21,10.27-4.6v45.27c-5.09,3.27-9.86,7.14-14.25,11.52-16.13,16.1-25.01,37.46-25.01,60.01s8.88,43.86,25.01,59.98c4.39,4.39,9.15,8.23,14.25,11.52,13.57,8.77,29.34,13.46,45.76,13.46h131.17l32.75,40.53Z"/>
  </g>
</svg>