<?xml version="1.0" encoding="UTF-8"?>
<svg id="Vrstva_1" data-name="Vrstva 1" xmlns="http://www.w3.org/2000/svg" viewBox="0 0 3688.18 1155.79">
  <defs>
    <style>
      .cls-1 {
        fill: #f4f6f5;
      }

      .cls-2 {
        fill: #9fb6c3;
      }
    </style>
  </defs>
  <g>
    <path class="cls-1" d="M848.28,875.58v-364.06h52.84v169.9l152.45-169.9h65.73l-161.05,177.73,172.93,186.33h-67.76l-162.31-173.94v173.94h-52.84Z"/>
    <path class="cls-1" d="M1430.9,511.51h-76.12l-118.32,364.08h54.87l26.63-82.17h149.45l26.95,82.17h54.86l-118.32-364.08ZM1334.04,743.87l58.21-179.52,58.88,179.52h-117.09Z"/>
    <path class="cls-1" d="M1654.49,875.58v-364.06h147.14c3.54,0,7.92.13,13.15.38,5.22.25,10.19.8,14.92,1.64,20.23,3.2,37.12,10.11,50.69,20.73,13.57,10.62,23.72,24.02,30.47,40.2,6.74,16.18,10.11,34.05,10.11,53.6s-3.37,37.67-10.11,53.85c-6.74,16.18-16.9,29.58-30.47,40.2-13.57,10.62-30.46,17.53-50.69,20.73-4.72.68-9.73,1.18-15.04,1.52-5.31.34-9.65.51-13.02.51h-94.3v130.71h-52.84ZM1707.33,694.81h92.28c3.37,0,7.12-.17,11.25-.51,4.13-.34,8.05-.92,11.76-1.77,10.79-2.53,19.47-7.21,26.04-14.03,6.57-6.83,11.29-14.7,14.16-23.64,2.86-8.93,4.3-17.86,4.3-26.8s-1.43-17.82-4.3-26.67c-2.87-8.85-7.58-16.69-14.16-23.51-6.57-6.83-15.26-11.5-26.04-14.03-3.71-1.01-7.63-1.68-11.76-2.02-4.13-.34-7.88-.51-11.25-.51h-92.28v133.49Z"/>
    <path class="cls-1" d="M2175.16,883.16c-26.13,0-49.68-4.51-70.66-13.53-20.98-9.01-38.26-21.91-51.83-38.68-13.57-16.77-22.37-36.7-26.42-59.79l55.11-8.34c5.56,22.25,17.19,39.57,34.89,51.96,17.7,12.39,38.34,18.58,61.94,18.58,14.66,0,28.15-2.31,40.45-6.95,12.3-4.63,22.2-11.29,29.71-19.97,7.5-8.68,11.25-19.09,11.25-31.22,0-6.57-1.14-12.39-3.41-17.44-2.27-5.06-5.4-9.48-9.35-13.27-3.96-3.79-8.76-7.08-14.41-9.86-5.65-2.78-11.84-5.18-18.58-7.21l-93.29-27.56c-9.1-2.69-18.37-6.19-27.81-10.49-9.44-4.3-18.08-9.94-25.91-16.94-7.84-6.99-14.2-15.67-19.09-26.04-4.89-10.37-7.33-22.96-7.33-37.8,0-22.41,5.77-41.42,17.32-57.01,11.54-15.59,27.18-27.39,46.9-35.4,19.72-8,41.8-12.01,66.24-12.01,24.61.34,46.65,4.72,66.11,13.15,19.47,8.43,35.65,20.52,48.54,36.28,12.89,15.76,21.78,34.85,26.67,57.26l-56.63,9.61c-2.53-13.65-7.92-25.41-16.18-35.27-8.26-9.86-18.37-17.45-30.34-22.75-11.97-5.31-24.95-8.05-38.94-8.22-13.49-.34-25.83,1.69-37.04,6.07-11.21,4.38-20.14,10.54-26.8,18.46-6.66,7.92-9.99,17.03-9.99,27.3s2.95,18.29,8.85,24.52c5.9,6.24,13.19,11.17,21.87,14.79,8.68,3.63,17.32,6.62,25.91,8.98l67.25,18.96c8.43,2.36,17.99,5.52,28.7,9.48,10.7,3.96,21.07,9.48,31.1,16.56,10.03,7.08,18.33,16.48,24.9,28.19,6.57,11.72,9.86,26.42,9.86,44.12s-3.71,34.51-11.12,48.42c-7.42,13.91-17.57,25.53-30.46,34.89-12.89,9.35-27.77,16.39-44.62,21.11-16.86,4.72-34.64,7.08-53.35,7.08Z"/>
    <path class="cls-1" d="M3127.09,875.58v-364.06h53.6l179.25,270.52v-270.52h53.6v364.06h-53.6l-179.25-270.77v270.77h-53.6Z"/>
  </g>
  <path class="cls-2" d="M3021.81,694.06c0,49.51-19.26,94.66-50.68,128.44l-39.59-47.33c18.98-22.92,29.25-51.31,29.25-81.11,0-33.99-13.38-66.14-37.68-90.41-9.3-9.3-19.74-17.01-30.98-22.96-18.15-9.61-38.41-14.73-59.43-14.73h-170.65v-61.02h170.65c37.44,0,72.47,11.03,101.92,30.01,52.34,33.71,87.19,92.55,87.19,159.11Z"/>
  <path class="cls-2" d="M2875.58,883.19h-255.88c-25.17,0-49.28-4.81-71.44-13.61-72.67-28.66-124.46-99.72-124.46-182.3,0-53.88,22.03-102.86,57.53-138.37,14.84-14.84,32.02-27.3,50.9-36.78,5.23-2.64,10.55-5.02,16.03-7.19v70.67c-7.95,5.1-15.39,11.14-22.24,17.99-25.17,25.13-39.04,58.47-39.04,93.68s13.86,68.46,39.04,93.64c6.85,6.85,14.29,12.84,22.24,17.99,21.18,13.69,45.8,21.01,71.44,21.01h204.76l51.12,63.27Z"/>
  <g>
    <path class="cls-2" d="M667.82,713.16c1.3,5.81,1.98,11.87,1.98,18.08,0,40.62-28.95,74.21-66.48,79.49-.07,0-.15.01-.21.01-16.84,1.51-32.53,3.03-29.69-24.15,2.89-25.69,6.56-56.98-23.97-68.57-10.31-3.73-21.8-4.64-32.83-5.65-13.36-1.06-27.79-1.9-40.54-.57-26.61,2.44-39.81,17.27-44.5,42.95-3.25,13.17-2.49,32.93-13.59,41.67-7.1,5.98-19.69,4.37-27.13,6.77-10.56,4.63,8.39,15.31,13.39,17.72,11.85,5.57,24.17,9.98,36.78,13.38,36.9,9.96,76.38,11.33,114.37,8.35.12-.01.27-.01.39-.03,10.47-.7,21.47-3.31,31.87-1.87,13.81,2.4,11.87,13.51,2.05,19.78-9.57,5.92-23.45,8.48-37.63,9.51-13.38.97-27.04.61-37.68.51-4.46-.1-9.42-.33-13.75.1-2.01.21-3.46.6-4.03,1.17-1.77,2.49,7.9,5.36,10.04,6.11,11.61,3.6,23.37,5.21,35.42,6.01,2.44.16,4.9.3,7.37.4,19.57.52,41.53,2.23,29.78,28.02-16.54,34.22-43.27,62.03-72.98,85.73-4.24,3.85-18.49,12.52-13.78,18.59,1.75,1.87,5.2,2.74,8.08,3.03,3.91.45,8.02.4,11.96.25,18.79-.39,36.5-5.74,49.32-19.67,3.93-4,7.54-8.43,11.1-13.15,33.92-46.65,64.44-92.44,66.92-145.57.01-.45.01-.88.01-1.35,11.07-1.78,30.7-7.22,40.8-24.08,2.98-4.96,6.11-12.55,6.16-29.44.06-14.58-2.17-41.2-19-73.55ZM551.68,753.9l-4.57,65.82c-8.11.46-16.05.7-23.7.7-24.32,0-46.98-2.35-67.52-7.01l4.58-65.85c.9-12.91,11.75-23.03,24.69-23.03.57,0,1.14.01,1.71.06l41.84,2.91c6.55.46,12.55,3.46,16.91,8.48,4.36,5,6.52,11.37,6.05,17.92Z"/>
    <path class="cls-2" d="M575.85,340.26h-.76c-8.88,0-18.13-.55-25.56-4.67-7.19-3.93-12-12.38-16.66-21.36-5.68-11.34-11.27-20.75-17.27-28.93,2.62-13.83,9.84-25.98,24.74-17.54,12.26,7.85,20.32,22.02,26.13,35.19,5.26,12.2,7.87,24.53,9.39,37.32Z"/>
    <path class="cls-2" d="M687.31,395.11c-.12-.99.52-1.95,1.5-2.17,6.23-1.44,11.82-1.26,16.67.79-.16-.34-.34-.69-.54-1.02l-.07-.12c-4.27-7.34-13.09-11.99-21.44-15.18-8-3.12-16.6-5.56-24.69-8.54-18.97-6.73-35.9-16.53-56-18.98-18.79-2.65-40.39,3.06-57.53-6.41-9.65-5.29-15.37-15.57-20.38-25.23-7.46-14.91-15.82-28.69-27.69-40.92-11.57-11.75-25.93-23.61-42.22-27.03-25.9-3.99-22.13,25.83-15.04,44.06,3.51,9.39,8.17,18.34,13.51,26.82,12.88,21.69,33.83,37.83,44.99,60.06,10.89,21.33,9.56,45.89,8.18,69.55-13.62,203.59-161.88,216.94-266.75,354.55-11.24,15.06-18.08,32.21-13.72,50.4,10.71,38.53,53.17,84.81,84.2,109.35,14.46,11.07,38.85,31.39,49.59,8.63,4.3-9.98,4.64-22.79,4.48-35.88-.33-14.64-2.35-29.24-6.37-43.31-3.34-11.67-8.02-22.98-14.29-33.39-8.52-14.55-19.79-25.27-23.93-40.42-3.82-14.32,2.95-26.47,12.54-37.71,44.65-50.32,106.4-83.49,149.42-135.06,7.34-8.72,14.14-17.9,20.29-27.51,17.54-27.31,29.77-58.21,37.5-89.61,3.34-13.36,5.62-27.33,7.66-41.19,2.8-16.81,6.11-42.2,26.83-42.37,10.61-.13,21.62,3.01,32.42,3.7,15.96,1.26,33.04-1,49.34-4.93,19.9-5.05,35.97-12.06,46.32-27.27,1.99-2.98,3.6-6.35,4.52-9.84-9.06,1.09-18.13-3.88-19.3-13.83ZM586.75,385.89c11.99-5.69,22.62-4.45,31.45,5.69-9.53,10.95-28.39,9.41-31.45-5.69Z"/>
    <path class="cls-2" d="M621,738.55c-.84-.24-1.32-.93-1.78-1.69-3.59-6.24-16.57-27.95-20.24-34.58-.78-1.4.19-4.05.84-5.91,1.93-5.57,3.94-11.19,5.85-16.79,4-11.71,7.57-23.64,9.45-35.95,8.61-54.9-4.32-109.35-30.94-157.58-1.66-3.12-.79-4.04,2.03-2.27,64.98,52.17,81.16,170.15,45.89,242.77-2.04,3.93-5.92,12.24-11.01,12.02l-.09-.02Z"/>
    <rect class="cls-2" x="492.03" y="735.87" width="29.09" height="7.66" rx=".85" ry=".85" transform="translate(50.71 -32.28) rotate(3.84)"/>
  </g>
</svg>