<?xml version="1.0" encoding="UTF-8"?>
<svg id="Layer_1" data-name="Layer 1" xmlns="http://www.w3.org/2000/svg" xmlns:xlink="http://www.w3.org/1999/xlink" viewBox="0 0 1855.83 1073.28">
  <defs>
    <style>
      .cls-1 {
        fill: #111d22;
      }
    </style>
  </defs>
  <g>
    <path class="cls-1" d="M430.65,687.41v-179.28h30v83.17l71.59-83.17h36.85l-77.07,87.9,82.29,91.38h-38.1l-75.57-83.66v83.66h-30Z"/>
    <path class="cls-1" d="M586.27,687.41l56.52-179.28h43.95l56.52,179.28h-30.88l-51.29-160.85h6.72l-50.67,160.85h-30.88ZM617.77,648.57v-28.01h94.12v28.01h-94.12Z"/>
    <path class="cls-1" d="M772.64,687.41v-179.28h74.08c1.74,0,3.98.06,6.72.19,2.74.12,5.27.39,7.59.81,10.38,1.58,18.94,5.02,25.71,10.33,6.76,5.31,11.79,12.01,15.06,20.11s4.92,17.08,4.92,26.95-1.66,18.74-4.98,26.83-8.36,14.8-15.12,20.11c-6.77,5.31-15.29,8.76-25.59,10.33-2.32.33-4.88.58-7.66.75-2.78.17-5,.25-6.66.25h-44.07v62.62h-30ZM802.64,596.77h42.83c1.66,0,3.53-.08,5.6-.25,2.07-.17,3.98-.5,5.73-1,4.98-1.25,8.9-3.44,11.77-6.6,2.86-3.15,4.9-6.72,6.1-10.71s1.8-7.88,1.8-11.7-.6-7.74-1.8-11.76c-1.2-4.03-3.24-7.61-6.1-10.77-2.86-3.15-6.79-5.35-11.77-6.6-1.74-.5-3.65-.81-5.73-.93-2.08-.12-3.94-.19-5.6-.19h-42.83v60.51Z"/>
    <path class="cls-1" d="M1004.95,691.14c-13.12,0-24.92-2.28-35.42-6.85-10.5-4.56-19.13-11.1-25.9-19.61-6.77-8.51-11.06-18.61-12.89-30.32l31.12-4.73c2.66,10.62,8.11,18.84,16.37,24.65,8.26,5.81,17.78,8.71,28.57,8.71,6.39,0,12.41-1,18.05-2.99,5.64-1.99,10.23-4.9,13.76-8.72,3.53-3.82,5.29-8.51,5.29-14.07,0-2.49-.42-4.79-1.25-6.91-.83-2.12-2.05-4-3.67-5.67-1.62-1.66-3.69-3.17-6.22-4.54-2.53-1.37-5.46-2.55-8.78-3.55l-46.31-13.69c-3.98-1.16-8.28-2.72-12.89-4.67-4.61-1.95-8.96-4.65-13.07-8.09-4.11-3.44-7.47-7.84-10.08-13.2s-3.92-11.97-3.92-19.86c0-11.54,2.93-21.23,8.78-29.07,5.85-7.84,13.74-13.71,23.66-17.62,9.92-3.9,20.93-5.81,33.05-5.73,12.28.08,23.24,2.18,32.87,6.29,9.63,4.11,17.68,10.06,24.15,17.87,6.47,7.8,11.04,17.22,13.7,28.26l-32.25,5.6c-1.33-6.31-3.88-11.68-7.66-16.12-3.78-4.44-8.38-7.82-13.82-10.15-5.44-2.32-11.23-3.57-17.37-3.74-5.98-.08-11.52.81-16.62,2.68-5.1,1.87-9.21,4.54-12.33,8.03-3.11,3.49-4.67,7.55-4.67,12.2,0,4.4,1.33,7.99,3.98,10.77,2.66,2.78,5.95,4.98,9.9,6.6,3.94,1.62,7.95,2.97,12.01,4.05l32.12,8.96c4.4,1.16,9.34,2.74,14.82,4.73,5.48,1.99,10.75,4.77,15.81,8.34,5.06,3.57,9.23,8.26,12.51,14.07,3.28,5.81,4.92,13.2,4.92,22.16s-1.93,17.45-5.79,24.46c-3.86,7.01-9.07,12.84-15.62,17.49-6.56,4.65-14.05,8.14-22.47,10.46-8.43,2.32-17.24,3.49-26.46,3.49Z"/>
    <path class="cls-1" d="M1111.77,687.41v-179.28h30v151.14h79.18v28.14h-109.19Z"/>
    <path class="cls-1" d="M1319.94,691.14c-17.93,0-33.29-3.92-46.07-11.77-12.78-7.84-22.6-18.78-29.44-32.81-6.85-14.03-10.27-30.29-10.27-48.8s3.42-34.78,10.27-48.8c6.85-14.03,16.66-24.96,29.44-32.81,12.78-7.84,28.14-11.76,46.07-11.76s33.3,3.92,46.13,11.76c12.82,7.84,22.66,18.78,29.51,32.81,6.85,14.03,10.27,30.3,10.27,48.8s-3.42,34.78-10.27,48.8c-6.85,14.03-16.68,24.96-29.51,32.81s-28.2,11.77-46.13,11.77ZM1319.94,662.88c12.03.08,22.06-2.57,30.07-7.97,8.01-5.39,14.03-12.99,18.05-22.78,4.02-9.79,6.04-21.25,6.04-34.36s-2.01-24.51-6.04-34.18c-4.03-9.67-10.04-17.2-18.05-22.6-8.01-5.39-18.03-8.17-30.07-8.34-12.04-.08-22.04,2.57-30,7.97-7.97,5.4-13.97,12.99-17.99,22.78-4.03,9.79-6.04,21.25-6.04,34.36s1.99,24.51,5.98,34.17c3.98,9.67,9.98,17.2,17.99,22.6,8.01,5.4,18.03,8.18,30.07,8.34Z"/>
    <path class="cls-1" d="M1513.53,691.14c-17.93,0-33.29-3.92-46.07-11.77-12.78-7.84-22.6-18.78-29.44-32.81-6.85-14.03-10.27-30.29-10.27-48.8s3.42-34.78,10.27-48.8c6.85-14.03,16.66-24.96,29.44-32.81,12.78-7.84,28.14-11.76,46.07-11.76,20.67,0,37.89,5.17,51.67,15.5,13.78,10.33,23.45,24.26,29.01,41.77l-30.25,8.34c-3.49-11.7-9.42-20.85-17.8-27.45-8.38-6.6-19.26-9.9-32.62-9.9-12.04,0-22.06,2.7-30.07,8.09-8.01,5.4-14.03,12.97-18.05,22.72-4.03,9.75-6.08,21.19-6.16,34.3,0,13.12,2.01,24.55,6.04,34.3,4.02,9.75,10.06,17.33,18.11,22.72,8.05,5.4,18.09,8.09,30.13,8.09,13.36,0,24.23-3.32,32.62-9.96,8.38-6.64,14.32-15.77,17.8-27.39l30.25,8.34c-5.56,17.51-15.23,31.44-29.01,41.77-13.78,10.33-31,15.5-51.67,15.5Z"/>
    <path class="cls-1" d="M1628.57,687.41v-179.28h30v83.17l71.59-83.17h36.85l-77.07,87.9,82.29,91.38h-38.1l-75.57-83.66v83.66h-30Z"/>
  </g>
  <image width="8334" height="8335" transform="translate(6.37 278.34) scale(.06)" xlink:href="Kapson_logo_9.png"/>
</svg>