<?xml version="1.0" encoding="UTF-8"?>
<svg id="Vrstva_1" data-name="Vrstva 1" xmlns="http://www.w3.org/2000/svg" viewBox="0 0 1000 1000">
  <defs>
    <style>
      .cls-1 {
        fill: #f4f6f5;
      }
    </style>
  </defs>
  <path class="cls-1" d="M655.97,704.58c-5.08.41-10.2.59-15.35.59h-218.4c-25.88,0-50.65-4.93-73.4-13.95-74.73-29.49-127.96-102.52-127.96-187.41,0-55.36,22.64-105.72,59.16-142.2,19.44-19.47,42.81-34.97,68.8-45.2v72.67c-8.17,5.23-15.83,11.45-22.86,18.48-25.88,25.84-40.12,60.08-40.12,96.26s14.25,70.38,40.12,96.26c7.03,7.03,14.69,13.22,22.86,18.48,21.76,14.06,47.04,21.61,73.4,21.61h181.07l52.68,64.42Z"/>
</svg>