<?xml version="1.0" encoding="UTF-8"?>
<svg id="Layer_1" data-name="Layer 1" xmlns="http://www.w3.org/2000/svg" xmlns:xlink="http://www.w3.org/1999/xlink" viewBox="0 0 1855.83 1073.28">
  <defs>
    <style>
      .cls-1 {
        fill: #111d22;
      }
    </style>
  </defs>
  <g>
    <g>
      <g>
        <path class="cls-1" d="M348.39,686.58v-177.86h29.77v82.5l71.02-82.5h36.56l-76.45,87.2,81.64,90.66h-37.79l-74.97-83v83h-29.77Z"/>
        <path class="cls-1" d="M500.06,686.58l56.07-177.86h43.6l56.07,177.86h-30.63l-50.89-159.58h6.67l-50.27,159.58h-30.63ZM531.31,648.05v-27.79h93.38v27.79h-93.38Z"/>
        <path class="cls-1" d="M682.24,686.58v-177.86h73.49c1.73,0,3.95.06,6.67.18,2.72.12,5.23.39,7.53.8,10.29,1.57,18.79,4.98,25.5,10.25,6.71,5.27,11.69,11.92,14.95,19.95,3.25,8.03,4.88,16.94,4.88,26.74s-1.65,18.59-4.94,26.62c-3.29,8.03-8.3,14.68-15.01,19.95-6.71,5.27-15.17,8.69-25.38,10.25-2.31.33-4.84.58-7.6.74-2.76.17-4.96.25-6.61.25h-43.72v62.13h-29.77ZM712,596.67h42.49c1.65,0,3.5-.08,5.56-.25,2.06-.16,3.95-.49,5.68-.99,4.94-1.24,8.83-3.42,11.67-6.55,2.84-3.13,4.86-6.67,6.05-10.62,1.19-3.95,1.79-7.82,1.79-11.61s-.6-7.68-1.79-11.67c-1.19-3.99-3.21-7.55-6.05-10.68-2.84-3.13-6.73-5.31-11.67-6.55-1.73-.49-3.62-.8-5.68-.93-2.06-.12-3.91-.18-5.56-.18h-42.49v60.03Z"/>
        <path class="cls-1" d="M909.99,690.29c-13.01,0-24.72-2.26-35.14-6.79-10.42-4.53-18.98-11.01-25.69-19.45-6.71-8.44-10.97-18.47-12.78-30.08l30.88-4.69c2.63,10.54,8.05,18.69,16.24,24.46,8.19,5.76,17.64,8.64,28.35,8.64,6.34,0,12.31-.99,17.91-2.96,5.6-1.98,10.15-4.86,13.65-8.64,3.5-3.79,5.25-8.44,5.25-13.96,0-2.47-.41-4.76-1.23-6.85-.82-2.1-2.04-3.97-3.64-5.62-1.61-1.65-3.67-3.15-6.18-4.51-2.51-1.36-5.42-2.53-8.71-3.52l-45.95-13.59c-3.95-1.15-8.21-2.7-12.78-4.63-4.57-1.93-8.89-4.61-12.97-8.03-4.08-3.42-7.41-7.78-10.01-13.09-2.59-5.31-3.89-11.88-3.89-19.7,0-11.45,2.9-21.06,8.71-28.84,5.81-7.78,13.63-13.61,23.47-17.48,9.84-3.87,20.77-5.76,32.79-5.68,12.19.08,23.05,2.16,32.61,6.24,9.55,4.08,17.54,9.99,23.96,17.72,6.42,7.74,10.95,17.09,13.59,28.04l-31.99,5.56c-1.32-6.26-3.85-11.59-7.6-16-3.75-4.4-8.32-7.76-13.71-10.07-5.39-2.3-11.14-3.54-17.23-3.7-5.93-.08-11.43.8-16.49,2.66-5.06,1.85-9.14,4.51-12.23,7.97s-4.63,7.49-4.63,12.1c0,4.37,1.32,7.92,3.95,10.68,2.63,2.76,5.91,4.94,9.82,6.55,3.91,1.61,7.88,2.94,11.92,4.01l31.87,8.89c4.36,1.15,9.26,2.72,14.7,4.69,5.43,1.98,10.66,4.74,15.69,8.27,5.02,3.54,9.16,8.19,12.41,13.96,3.25,5.76,4.88,13.09,4.88,21.99s-1.91,17.31-5.74,24.27c-3.83,6.96-9,12.74-15.5,17.35-6.51,4.61-13.94,8.07-22.29,10.37-8.36,2.3-17.11,3.46-26.25,3.46Z"/>
        <path class="cls-1" d="M1013.24,686.58v-177.86h29.77v149.94h78.55v27.91h-108.32Z"/>
        <path class="cls-1" d="M1548.36,690.29c-17.78,0-33.02-3.89-45.7-11.67-12.68-7.78-22.42-18.63-29.21-32.55-6.79-13.91-10.19-30.05-10.19-48.42s3.4-34.5,10.19-48.42c6.79-13.91,16.53-24.76,29.21-32.54,12.68-7.78,27.91-11.67,45.7-11.67,20.5,0,37.59,5.13,51.26,15.38,13.67,10.25,23.26,24.06,28.78,41.44l-30.01,8.28c-3.46-11.61-9.35-20.69-17.66-27.24-8.32-6.55-19.11-9.82-32.36-9.82-11.94,0-21.88,2.68-29.83,8.03-7.95,5.35-13.92,12.87-17.91,22.54-4,9.68-6.03,21.02-6.11,34.03,0,13.01,1.99,24.35,5.99,34.03,3.99,9.68,9.98,17.19,17.97,22.54,7.98,5.35,17.95,8.03,29.89,8.03,13.26,0,24.04-3.29,32.36-9.88,8.32-6.59,14.2-15.64,17.66-27.17l30.01,8.28c-5.52,17.37-15.11,31.19-28.78,41.44-13.67,10.25-30.76,15.38-51.26,15.38Z"/>
        <path class="cls-1" d="M1654.88,686.58v-177.86h29.76v82.5l71.02-82.5h36.56l-76.45,87.2,81.64,90.66h-37.79l-74.97-83v83h-29.76Z"/>
      </g>
      <image width="8334" height="8334" transform="translate(1103.68 413.18) scale(.05)" xlink:href="Všechno/Garik/logo/cmyk/Kapson_logo_7.png"/>
    </g>
    <image width="8334" height="8334" transform="translate(-61.73 278.18) scale(.06)" xlink:href="Kapson_logo_10.png"/>
  </g>
  <image width="8334" height="8335" transform="translate(1816.79 278.17) scale(.06)" xlink:href="Kapson_logo_9.png"/>
</svg>